<?xml version="1.0" encoding="iso-8859-1"?>
<!-- Generator: Adobe Illustrator 16.0.0, SVG Export Plug-In . SVG Version: 6.00 Build 0)  -->
<!DOCTYPE svg PUBLIC "-//W3C//DTD SVG 1.1//EN" "http://www.w3.org/Graphics/SVG/1.1/DTD/svg11.dtd">
<svg version="1.1" id="Capa_1" xmlns="http://www.w3.org/2000/svg" xmlns:xlink="http://www.w3.org/1999/xlink" x="0px" y="0px"
	 width="44.166px" height="44.167px" viewBox="0 0 44.166 44.167" style="enable-background:new 0 0 44.166 44.167;"
	 xml:space="preserve">
<g>
	<g>
		<path d="M21.234,20.375c0.47,0.468,1.228,0.468,1.697,0c2.327-2.315,8.646-8.604,8.775-8.733c2.662-2.663,2.662-6.98,0-9.644
			c-2.655-2.656-6.96-2.663-9.624-0.019c-2.665-2.645-6.967-2.638-9.624,0.019c-2.662,2.663-2.662,6.98,0,9.644
			C12.589,11.772,18.908,18.06,21.234,20.375z"/>
		<path d="M22.932,23.791c-0.469-0.467-1.229-0.467-1.697,0.001c-2.327,2.314-8.646,8.604-8.775,8.732
			c-2.662,2.663-2.662,6.98,0,9.645c2.657,2.656,6.959,2.663,9.624,0.019c2.664,2.646,6.969,2.639,9.624-0.019
			c2.662-2.663,2.662-6.98,0-9.645C31.577,32.396,25.259,26.106,22.932,23.791z"/>
		<path d="M42.168,12.459c-2.662-2.663-6.979-2.662-9.645-0.001c-0.131,0.129-6.419,6.448-8.733,8.774
			c-0.467,0.47-0.467,1.228,0.001,1.697c2.314,2.328,8.604,8.648,8.732,8.777c2.662,2.662,6.981,2.662,9.645,0.001
			c2.655-2.655,2.662-6.96,0.018-9.625C44.83,19.418,44.825,15.116,42.168,12.459z"/>
		<path d="M20.376,22.932c0.467-0.47,0.467-1.228,0-1.697c-2.315-2.327-8.605-8.646-8.733-8.775
			c-2.664-2.663-6.98-2.663-9.644-0.001c-2.656,2.657-2.663,6.959-0.02,9.625c-2.644,2.664-2.637,6.969,0.02,9.624
			c2.664,2.663,6.979,2.662,9.644,0.001C11.772,31.578,18.061,25.259,20.376,22.932z"/>
	</g>
</g>
<g>
</g>
<g>
</g>
<g>
</g>
<g>
</g>
<g>
</g>
<g>
</g>
<g>
</g>
<g>
</g>
<g>
</g>
<g>
</g>
<g>
</g>
<g>
</g>
<g>
</g>
<g>
</g>
<g>
</g>
</svg>
